<svg xmlns="http://www.w3.org/2000/svg" viewBox="0 0 1877.57 572.09"><defs><style>.cls-1{fill:#fff;}</style></defs><title>Fichier 2</title><g id="Calque_2" data-name="Calque 2"><g id="Calque_1-2" data-name="Calque 1"><path class="cls-1" d="M252.2,468.19V427.61H43.7V276.54H246v-41.2H43.7V84.27H252.2V43.7H0V468.19Z"/><path class="cls-1" d="M385.14,429.48c-10.61-7.49-18.73-20-23.1-38.07h-46.2c9.37,56.8,45.58,84.89,109.25,84.89,15,0,28.71-1.25,41.82-5a127,127,0,0,0,35-15.61q31.83-21.54,31.84-65.54c0-30-13.74-51.19-42.45-64.93a181.07,181.07,0,0,0-39.33-13.1c-13.73-3.12-26.84-6.87-38.7-10.62a107.25,107.25,0,0,1-30.59-14.35c-8.11-5.62-12.48-14.36-12.48-26.85s5-21.85,15-27.47c10-6.24,21.84-9.36,34.95-9.36,13.74,0,25.6,3.12,35,8.11s16.86,15,21.23,30h46.81c-5.61-27.47-17.48-46.82-35-57.43-18.1-11.24-39.95-16.85-66.8-16.85-26.22,0-49.31,7.49-68.66,21.22C334,222.85,324,243.46,324,270.92a60.84,60.84,0,0,0,10.61,35c7.49,10.61,18.11,18.73,31.84,25a265.16,265.16,0,0,0,39.32,13.73c13.74,3.13,26.85,6.87,39.33,10.62,28.1,9.36,42.46,23.1,42.46,40.58,0,30-20,44.31-59.94,44.31C410.73,440.09,396.37,437,385.14,429.48Z"/><path class="cls-1" d="M815.23,330.85c0,26.84-9.37,50.57-28.1,69.92-18.72,20-41.82,30-68.67,30q-41.19,0-69.29-30c-18.73-19.35-27.47-43.08-27.47-69.92,0-26.21,8.74-49.94,27.47-69.91s41.83-30,69.29-30c26.85,0,49.95,10,68.67,30S815.23,304.64,815.23,330.85Zm43.69,137.34V193.52H815.23V241c-2.5-3.75-5.62-6.87-8.12-10-26.22-28.71-58.06-43.69-95.51-43.69-38.08,0-69.92,15-96.14,43.69-25,28.72-37.45,61.8-37.45,99.88,0,38.71,12.49,71.79,37.45,99.88,26.22,29.34,58.06,43.7,96.14,43.7,37.45,0,69.29-14.36,95.51-43.7a62.94,62.94,0,0,0,8.12-9.36v46.82Z"/><path class="cls-1" d="M996.19,424.49V43.7h-43.7V468.19h195.39v-43.7Z"/><path class="cls-1" d="M1251.49,98.63c-5.62-5-12.49-8.11-20-8.11A27.71,27.71,0,0,0,1204,118.6c0,7.5,2.5,14.36,8.12,19.36,5,5.62,11.86,8.11,19.35,8.11a27.7,27.7,0,0,0,28.09-27.47C1259.6,111.11,1256.48,104.25,1251.49,98.63ZM1254,468.19V193.52h-43.69V468.19Z"/><path class="cls-1" d="M1539.88,468.19h43.69V296.52c0-31.84-8.73-57.43-25-76.79A92.23,92.23,0,0,0,1528,196.64c-12.49-5.62-28.09-8.74-47.45-8.74a90.72,90.72,0,0,0-51.81,15.61,106,106,0,0,0-35,37.45V193.52h-43.69V468.19h43.69V353.32c0-35,6.25-62.42,19.36-83a94.81,94.81,0,0,1,28.71-28.09c11.24-6.87,26.85-10.62,45.57-10.62s31.84,6.87,40,19.36,12.49,28.09,12.49,45.57Z"/><path class="cls-1" d="M1711.52,468.19V336.47l108,131.72h58L1757.09,326.48l113-133.59h-58L1711.52,317.12V0h-43.7V468.19Z"/><path class="cls-1" d="M949.22,571.67V512.21h11.57v59.46Z"/><path class="cls-1" d="M1022.18,533.57v38.1h-11.56V512.21h9l31,39V512.3h11.56v59.37h-9.38Z"/><path class="cls-1" d="M1156.44,522.34h-19v49.33H1126V522.34h-19V512.21h49.5Z"/><path class="cls-1" d="M1242.53,561.55v10.12h-41.29V512.21h40.54v10.13h-29v14.33h25v9.38h-25v15.5Z"/><path class="cls-1" d="M1330.31,565a22.72,22.72,0,0,1-16.59,7.13,26.42,26.42,0,0,1-11-2.33,27.91,27.91,0,0,1-9-6.46,31,31,0,0,1-6-9.67,32.42,32.42,0,0,1-2.2-12,30,30,0,0,1,8.33-21,29.11,29.11,0,0,1,9.17-6.44,27.46,27.46,0,0,1,11.47-2.39,27.89,27.89,0,0,1,14.36,3.52,22.76,22.76,0,0,1,9,9.46l-8.63,6.35a15.86,15.86,0,0,0-6.31-6.77,17.34,17.34,0,0,0-8.85-2.35,15,15,0,0,0-6.9,1.6,16.16,16.16,0,0,0-5.37,4.35,20.73,20.73,0,0,0-3.44,6.36,23.76,23.76,0,0,0-1.21,7.62,22.61,22.61,0,0,0,1.33,7.84,20.4,20.4,0,0,0,3.69,6.33,17.56,17.56,0,0,0,5.58,4.23,16,16,0,0,0,7,1.54q8.63,0,15.57-8.12v-4.19h-12v-8.46h21.54v30.56h-9.56Z"/><path class="cls-1" d="M1387.18,571.67V512.21h26.31a16.73,16.73,0,0,1,7.56,1.73,19.61,19.61,0,0,1,6,4.52,21.15,21.15,0,0,1,3.94,6.36,19.31,19.31,0,0,1,1.41,7.17,19.75,19.75,0,0,1-2.89,10.5,16.58,16.58,0,0,1-7.81,6.83l13.56,22.35h-13l-12.15-19.93h-11.39v19.93Zm11.56-30.06h14.5a6.11,6.11,0,0,0,3-.75,7.71,7.71,0,0,0,2.39-2.06,10.43,10.43,0,0,0,1.59-3,11.68,11.68,0,0,0,.6-3.77,10.44,10.44,0,0,0-.69-3.86,10,10,0,0,0-1.79-3.06,8.06,8.06,0,0,0-2.6-2,6.53,6.53,0,0,0-3-.73h-14Z"/><path class="cls-1" d="M1497.25,512.21h10.21l22.6,59.46h-11.88l-5.54-14.83h-20.77l-5.44,14.83h-11.89Zm13.31,36.53-8.21-23.38-8.54,23.38Z"/><path class="cls-1" d="M1618.51,522.34h-19v49.33H1588V522.34h-19V512.21h49.5Z"/><path class="cls-1" d="M1663.31,571.67V512.21h11.56v59.46Z"/><path class="cls-1" d="M1750.1,572.09a27.14,27.14,0,0,1-11.87-2.54,29.17,29.17,0,0,1-9.13-6.79,31.41,31.41,0,0,1-5.9-9.67,31,31,0,0,1-2.08-11.15,30,30,0,0,1,2.21-11.39,31.54,31.54,0,0,1,6.12-9.63,29.09,29.09,0,0,1,9.25-6.64,27.42,27.42,0,0,1,11.65-2.48,26,26,0,0,1,11.75,2.64,29.12,29.12,0,0,1,9.08,6.9,31.71,31.71,0,0,1,5.86,9.73,30.42,30.42,0,0,1,2.1,11,29.94,29.94,0,0,1-2.19,11.35,30.52,30.52,0,0,1-6,9.55,28.78,28.78,0,0,1-9.2,6.62A27.57,27.57,0,0,1,1750.1,572.09Zm-17.27-30.15a24,24,0,0,0,1.17,7.46,20.31,20.31,0,0,0,3.39,6.38,17.11,17.11,0,0,0,5.46,4.43,16.89,16.89,0,0,0,14.73,0,16.83,16.83,0,0,0,5.44-4.58,20.28,20.28,0,0,0,3.35-6.4,23.63,23.63,0,0,0,1.15-7.25,22.91,22.91,0,0,0-1.23-7.45,20.1,20.1,0,0,0-3.44-6.36,16.18,16.18,0,0,0-5.44-4.39,16.79,16.79,0,0,0-14.68.08,16.37,16.37,0,0,0-5.46,4.52,20.55,20.55,0,0,0-3.32,6.35A24,24,0,0,0,1732.83,541.94Z"/><path class="cls-1" d="M1837,533.57v38.1h-11.56V512.21h9l31,39V512.3H1877v59.37h-9.37Z"/><path class="cls-1" d="M603,571.67V512.21h21.63a32.12,32.12,0,0,1,12.75,2.36,26.22,26.22,0,0,1,9.18,6.35,26.51,26.51,0,0,1,5.53,9.42,35.39,35.39,0,0,1,1.85,11.52,34.82,34.82,0,0,1-2.06,12.27,26.19,26.19,0,0,1-5.9,9.38,26.64,26.64,0,0,1-9.27,6,32.86,32.86,0,0,1-12.08,2.12Zm39.29-29.81a25.07,25.07,0,0,0-1.18-7.87,17.35,17.35,0,0,0-3.44-6.19,15.13,15.13,0,0,0-5.56-4,18.52,18.52,0,0,0-7.48-1.44H614.52v39.21h10.07a18.09,18.09,0,0,0,7.56-1.5,15.53,15.53,0,0,0,5.52-4.15,18.39,18.39,0,0,0,3.4-6.25A24.79,24.79,0,0,0,642.25,541.86Z"/><path class="cls-1" d="M695,512.21h10.2l22.61,59.46H716l-5.54-14.83H689.65l-5.44,14.83H672.32Zm13.31,36.53-8.21-23.38-8.54,23.38Z"/><path class="cls-1" d="M794,522.34H775v49.33H763.53V522.34h-19V512.21H794Z"/><path class="cls-1" d="M833.47,512.21h10.21l22.6,59.46H854.4l-5.54-14.83H828.09l-5.44,14.83H810.76Zm13.31,36.53-8.21-23.38L830,548.74Z"/></g></g></svg>